# xmcd
#
# Track frame offsets: 
#        151
#        22981
#        45394
#        69178
#        89957
#        112642
#        124726
#        136421
#        159036
#        172439
#        193647
#        213135
#        231976
#        241515
#        258604
#
# Disc length: 3593 seconds
#
# Revision: 1
# Processed by: cddbd v1.5.2PL0 Copyright (c) Steve Scherf et al.
# Submitted via: ExactAudioCopy v0.99pb5
#
DISCID=c30e070f
DTITLE=Various Artist - 1958 and 1959 Milano Sessions
DYEAR=2003
DGENRE=Jazz
TTITLE0=Chet Baker Quartet and Sextet - Pent-up House
TTITLE1=Chet Baker Quartet and Sextet - My Old Flame
TTITLE2=Chet Baker Quartet and Sextet - Indian Summer
TTITLE3=Chet Baker Quartet and Sextet - Look For The Silver Lining
TTITLE4=Chet Baker with Len Mercer and his Strings - My Funny Valentin
TTITLE4=e
TTITLE5=Bud Shank with Len Mercer and his Strings - I'll Take Romance
TTITLE6=Bud Shank with Len Mercer and his Strings - These Foolish Thin
TTITLE6=gs
TTITLE7=Bud Shank with Len Mercer and his Strings - Deep Purple
TTITLE8=Bud Shank with Len Mercer and his Strings - What A Difference 
TTITLE8=A Day Made
TTITLE9=Bud Shank with Len Mercer and his Strings - How Deep Is The Oc
TTITLE9=ean
TTITLE10=Bud Shank with Len Mercer and his Strings - Smoke Gets In You
TTITLE10=r Eyes
TTITLE11=Bud Shank with Len Mercer and his Strings - Embraceable You
TTITLE12=Bud Shank with Len Mercer and his Strings - But Not For Me
TTITLE13=Bud Shank with Len Mercer and his Strings - Someone To Watch 
TTITLE13=Over Me
TTITLE14=Bud Shank with Len Mercer and his Strings - Blue Room
EXTD=YEAR: 1959
EXTT0=
EXTT1=
EXTT2=
EXTT3=
EXTT4=
EXTT5=
EXTT6=
EXTT7=
EXTT8=
EXTT9=
EXTT10=
EXTT11=
EXTT12=
EXTT13=
EXTT14=
PLAYORDER=
